<?xml version="1.0" ?><svg data-name="003" id="_003" viewBox="0 0 128 128" xmlns="http://www.w3.org/2000/svg"><defs><style>.cls-1{opacity:0.3;}.cls-13,.cls-2{fill:#c9c1f5;}.cls-3{fill:#6d6daa;}.cls-4{fill:#fffad1;}.cls-5{fill:#89dbba;}.cls-6{fill:#b1f1a8;}.cls-7{fill:#eef6ff;}.cls-15,.cls-8{fill:#fff;}.cls-9{fill:#7690a8;}.cls-10{fill:#fff27d;}.cls-11{opacity:0.5;}.cls-12{fill:#ffc661;}.cls-13,.cls-14,.cls-15{fill-rule:evenodd;}.cls-14{fill:#5b58bc;}.cls-16{fill:#48bc33;}</style></defs><title/><g class="cls-1"><path class="cls-2" d="M112.3,100.77a30,30,0,0,0,8.59-33.26,19.69,19.69,0,0,1-.31-12.74A37,37,0,0,0,73.22,8.7,21,21,0,0,1,55.84,6.82c-13.79-8-33.73-3.81-42,16.68a16.6,16.6,0,0,0-.75,8A20.58,20.58,0,0,1,9.29,45.78,28.49,28.49,0,0,0,21.41,88.55,20.06,20.06,0,0,1,32.79,101,29,29,0,0,0,80.62,113.4,20.08,20.08,0,0,1,93.9,108,29.83,29.83,0,0,0,112.3,100.77Z"/><rect class="cls-2" height="12" width="15" x="9.99" y="19"/><path class="cls-3" d="M25,32H10a1,1,0,0,1-1-1V19a1,1,0,0,1,1-1H25a1,1,0,0,1,1,1V31A1,1,0,0,1,25,32ZM11,30H24V20H11Z"/><rect class="cls-2" height="5" width="17" x="8.99" y="14"/><path class="cls-3" d="M26,20H9a1,1,0,0,1-1-1V14a1,1,0,0,1,1-1H26a1,1,0,0,1,1,1v5A1,1,0,0,1,26,20ZM10,18H25V15H10Z"/><rect class="cls-4" height="6" width="122.01" x="2.99" y="31"/><path class="cls-3" d="M125,38H3a1,1,0,0,1-1-1V31a1,1,0,0,1,1-1H125a1,1,0,0,1,1,1v6A1,1,0,0,1,125,38ZM4,36H124V32H4Z"/><rect class="cls-4" height="6" width="122.01" x="2.99" y="71"/><path class="cls-3" d="M125,78H3a1,1,0,0,1-1-1V71a1,1,0,0,1,1-1H125a1,1,0,0,1,1,1v6A1,1,0,0,1,125,78ZM4,76H124V72H4Z"/><path class="cls-3" d="M20,24H15a1,1,0,0,1,0-2h5a1,1,0,0,1,0,2Z"/><rect class="cls-5" height="3.99" width="41.99" x="41.99" y="14"/><path class="cls-3" d="M84,19H42a1,1,0,0,1-1-1V14a1,1,0,0,1,1-1H84a1,1,0,0,1,1,1v4A1,1,0,0,1,84,19ZM43,17H83V15H43Z"/><rect class="cls-6" height="3.99" width="41.99" x="41.99" y="10"/><path class="cls-3" d="M84,15H42a1,1,0,0,1-1-1V10a1,1,0,0,1,1-1H84a1,1,0,0,1,1,1v4A1,1,0,0,1,84,15ZM43,13H83V11H43Z"/><rect class="cls-5" height="3.99" width="41.99" x="41.99" y="6"/><path class="cls-3" d="M84,11H42a1,1,0,0,1-1-1V6a1,1,0,0,1,1-1H84a1,1,0,0,1,1,1v4A1,1,0,0,1,84,11ZM43,9H83V7H43Z"/><rect class="cls-7" height="14" width="9.99" x="57.99" y="4.5"/><rect class="cls-8" height="3" width="9.99" x="57.99" y="5"/><g class="cls-1"><rect class="cls-9" height="3" width="9.99" x="57.99" y="16"/></g><path class="cls-3" d="M68,20H58a1,1,0,0,1-1-1V5a1,1,0,0,1,1-1H68a1,1,0,0,1,1,1V19A1,1,0,0,1,68,20Zm-9-2h8V6H59Z"/><rect class="cls-5" height="3.99" width="41.99" x="71.99" y="26.01"/><path class="cls-3" d="M114,31H72a1,1,0,0,1-1-1V26a1,1,0,0,1,1-1h42a1,1,0,0,1,1,1v4A1,1,0,0,1,114,31ZM73,29h40V27H73Z"/><rect class="cls-6" height="3.99" width="41.99" x="71.99" y="22"/><path class="cls-3" d="M114,27H72a1,1,0,0,1-1-1V22a1,1,0,0,1,1-1h42a1,1,0,0,1,1,1v4A1,1,0,0,1,114,27ZM73,25h40V23H73Z"/><rect class="cls-5" height="3.99" width="41.99" x="71.99" y="18"/><path class="cls-3" d="M114,23H72a1,1,0,0,1-1-1V18a1,1,0,0,1,1-1h42a1,1,0,0,1,1,1v4A1,1,0,0,1,114,23ZM73,21h40V19H73Z"/><rect class="cls-7" height="14" width="10" x="87.99" y="16.51"/><rect class="cls-8" height="3" width="10" x="87.99" y="17"/><g class="cls-1"><rect class="cls-9" height="3" width="10" x="87.99" y="28.01"/></g><path class="cls-3" d="M98,32H88a1,1,0,0,1-1-1V17a1,1,0,0,1,1-1H98a1,1,0,0,1,1,1V31A1,1,0,0,1,98,32Zm-9-2h8V18H89Z"/><rect class="cls-5" height="3.99" width="41.99" x="35.99" y="26.01"/><path class="cls-3" d="M78,31H36a1,1,0,0,1-1-1V26a1,1,0,0,1,1-1H78a1,1,0,0,1,1,1v4A1,1,0,0,1,78,31ZM37,29H77V27H37Z"/><rect class="cls-6" height="3.99" width="41.99" x="35.99" y="22"/><path class="cls-3" d="M78,27H36a1,1,0,0,1-1-1V22a1,1,0,0,1,1-1H78a1,1,0,0,1,1,1v4A1,1,0,0,1,78,27ZM37,25H77V23H37Z"/><rect class="cls-5" height="3.99" width="41.99" x="35.99" y="18"/><path class="cls-3" d="M78,23H36a1,1,0,0,1-1-1V18a1,1,0,0,1,1-1H78a1,1,0,0,1,1,1v4A1,1,0,0,1,78,23ZM37,21H77V19H37Z"/><rect class="cls-7" height="14" width="10" x="51.98" y="16.51"/><rect class="cls-8" height="3" width="10" x="51.98" y="17"/><g class="cls-1"><rect class="cls-9" height="3" width="10" x="51.98" y="28.01"/></g><path class="cls-3" d="M62,32H52a1,1,0,0,1-1-1V17a1,1,0,0,1,1-1H62a1,1,0,0,1,1,1V31A1,1,0,0,1,62,32Zm-9-2h8V18H53Z"/><path class="cls-10" d="M5.77,68.43l1.8-6A2,2,0,0,1,9.49,61h11a2,2,0,0,1,1.92,1.43l1.8,6A2,2,0,0,1,22.31,71H7.69A2,2,0,0,1,5.77,68.43Z"/><g class="cls-11"><path class="cls-8" d="M5.77,68.43s0,.06,0,.1l15.41-7.41a2,2,0,0,0-.66-.12h-11a2,2,0,0,0-1.92,1.43Z"/></g><g class="cls-11"><path class="cls-8" d="M22.78,63.62l-.22-.72L6.52,70.61A2,2,0,0,0,7.69,71h4.25l11.41-5.48Z"/></g><path class="cls-3" d="M22.31,72H7.69a3,3,0,0,1-2.87-3.86l1.8-6A3,3,0,0,1,9.49,60h11a3,3,0,0,1,2.87,2.14l1.8,6A3,3,0,0,1,22.31,72ZM9.49,62a1,1,0,0,0-1,.71l-1.8,6h0a1,1,0,0,0,1,1.29H22.31a1,1,0,0,0,1-1.29l-1.8-6a1,1,0,0,0-1-.71ZM5.77,68.43h0Z"/><path class="cls-10" d="M25.77,68.43l1.8-6A2,2,0,0,1,29.49,61h11a2,2,0,0,1,1.92,1.43l1.8,6A2,2,0,0,1,42.31,71H27.69A2,2,0,0,1,25.77,68.43Z"/><g class="cls-11"><path class="cls-8" d="M25.77,68.43s0,.06,0,.1l15.41-7.41a2,2,0,0,0-.66-.12h-11a2,2,0,0,0-1.92,1.43Z"/></g><g class="cls-11"><path class="cls-8" d="M42.78,63.62l-.22-.72L26.52,70.61a2,2,0,0,0,1.17.39h4.25l11.41-5.48Z"/></g><path class="cls-3" d="M42.31,72H27.69a3,3,0,0,1-2.87-3.86l1.8-6A3,3,0,0,1,29.49,60h11a3,3,0,0,1,2.87,2.14l1.8,6A3,3,0,0,1,42.31,72ZM29.49,62a1,1,0,0,0-1,.71l-1.8,6h0a1,1,0,0,0,1,1.29H42.31a1,1,0,0,0,1-1.29l-1.8-6a1,1,0,0,0-1-.71Zm-3.72,6.43h0Z"/><path class="cls-10" d="M45.77,68.43l1.8-6A2,2,0,0,1,49.49,61h11a2,2,0,0,1,1.92,1.43l1.8,6A2,2,0,0,1,62.31,71H47.69A2,2,0,0,1,45.77,68.43Z"/><g class="cls-11"><path class="cls-8" d="M45.77,68.43s0,.06,0,.1l15.41-7.41a2,2,0,0,0-.66-.12h-11a2,2,0,0,0-1.92,1.43Z"/></g><g class="cls-11"><path class="cls-8" d="M62.78,63.62l-.22-.72L46.52,70.61a2,2,0,0,0,1.17.39h4.25l11.41-5.48Z"/></g><path class="cls-3" d="M62.31,72H47.69a3,3,0,0,1-2.87-3.86l1.8-6A3,3,0,0,1,49.49,60h11a3,3,0,0,1,2.87,2.14l1.8,6A3,3,0,0,1,62.31,72ZM49.49,62a1,1,0,0,0-1,.71l-1.8,6h0a1,1,0,0,0,1,1.29H62.31a1,1,0,0,0,1-1.29l-1.8-6a1,1,0,0,0-1-.71Zm-3.72,6.43h0Z"/><path class="cls-10" d="M35.77,58.43l1.8-6A2,2,0,0,1,39.49,51h11a2,2,0,0,1,1.92,1.43l1.8,6A2,2,0,0,1,52.31,61H37.69A2,2,0,0,1,35.77,58.43Z"/><g class="cls-11"><path class="cls-8" d="M35.77,58.43s0,.06,0,.1l15.41-7.41a2,2,0,0,0-.66-.12h-11a2,2,0,0,0-1.92,1.43Z"/></g><g class="cls-11"><path class="cls-8" d="M52.78,53.62l-.22-.72L36.52,60.61a2,2,0,0,0,1.17.39h4.25l11.41-5.48Z"/></g><path class="cls-3" d="M52.31,62H37.69a3,3,0,0,1-2.87-3.86l1.8-6A3,3,0,0,1,39.49,50h11a3,3,0,0,1,2.87,2.14l1.8,6A3,3,0,0,1,52.31,62ZM39.49,52a1,1,0,0,0-1,.71l-1.8,6h0a1,1,0,0,0,1,1.29H52.31a1,1,0,0,0,1-1.29l-1.8-6a1,1,0,0,0-1-.71Zm-3.72,6.43h0Z"/><path class="cls-10" d="M15.77,58.43l1.8-6A2,2,0,0,1,19.49,51h11a2,2,0,0,1,1.92,1.43l1.8,6A2,2,0,0,1,32.31,61H17.69A2,2,0,0,1,15.77,58.43Z"/><g class="cls-11"><path class="cls-8" d="M15.77,58.43s0,.06,0,.1l15.41-7.41a2,2,0,0,0-.66-.12h-11a2,2,0,0,0-1.92,1.43Z"/></g><g class="cls-11"><path class="cls-8" d="M32.78,53.62l-.22-.72L16.52,60.61a2,2,0,0,0,1.17.39h4.25l11.41-5.48Z"/></g><path class="cls-3" d="M32.31,62H17.69a3,3,0,0,1-2.87-3.86l1.8-6A3,3,0,0,1,19.49,50h11a3,3,0,0,1,2.87,2.14l1.8,6A3,3,0,0,1,32.31,62ZM19.49,52a1,1,0,0,0-1,.71l-1.8,6h0a1,1,0,0,0,1,1.29H32.31a1,1,0,0,0,1-1.29l-1.8-6a1,1,0,0,0-1-.71Zm-3.72,6.43h0Z"/><path class="cls-10" d="M25.77,48.43l1.8-6A2,2,0,0,1,29.49,41h11a2,2,0,0,1,1.92,1.43l1.8,6A2,2,0,0,1,42.31,51H27.69A2,2,0,0,1,25.77,48.43Z"/><g class="cls-11"><path class="cls-8" d="M25.77,48.43s0,.06,0,.1l15.41-7.41a2,2,0,0,0-.66-.12h-11a2,2,0,0,0-1.92,1.43Z"/></g><g class="cls-11"><path class="cls-8" d="M42.78,43.62l-.22-.72L26.52,50.61a2,2,0,0,0,1.17.39h4.25l11.41-5.48Z"/></g><path class="cls-3" d="M42.31,52H27.69a3,3,0,0,1-2.87-3.86l1.8-6A3,3,0,0,1,29.49,40h11a3,3,0,0,1,2.87,2.14l1.8,6A3,3,0,0,1,42.31,52ZM29.49,42a1,1,0,0,0-1,.71l-1.8,6h0a1,1,0,0,0,1,1.29H42.31a1,1,0,0,0,1-1.29l-1.8-6a1,1,0,0,0-1-.71Zm-3.72,6.43h0Z"/><path class="cls-10" d="M85.77,68.43l1.8-6A2,2,0,0,1,89.49,61h11a2,2,0,0,1,1.92,1.43l1.8,6A2,2,0,0,1,102.31,71H87.69A2,2,0,0,1,85.77,68.43Z"/><g class="cls-11"><path class="cls-8" d="M85.77,68.43s0,.06,0,.1l15.41-7.41a2,2,0,0,0-.66-.12h-11a2,2,0,0,0-1.92,1.43Z"/></g><g class="cls-11"><path class="cls-8" d="M102.78,63.62l-.22-.72L86.52,70.61a2,2,0,0,0,1.17.39h4.25l11.41-5.48Z"/></g><path class="cls-3" d="M102.31,72H87.69a3,3,0,0,1-2.87-3.86l1.8-6A3,3,0,0,1,89.49,60h11a3,3,0,0,1,2.87,2.14l1.8,6A3,3,0,0,1,102.31,72ZM89.49,62a1,1,0,0,0-1,.71l-1.8,6h0a1,1,0,0,0,1,1.29h14.62a1,1,0,0,0,1-1.29l-1.8-6a1,1,0,0,0-1-.71Zm-3.72,6.43h0Z"/><path class="cls-10" d="M105.77,68.43l1.8-6A2,2,0,0,1,109.49,61h11a2,2,0,0,1,1.92,1.43l1.8,6A2,2,0,0,1,122.31,71H107.69A2,2,0,0,1,105.77,68.43Z"/><g class="cls-11"><path class="cls-8" d="M105.77,68.43s0,.06,0,.1l15.41-7.41a2,2,0,0,0-.66-.12h-11a2,2,0,0,0-1.92,1.43Z"/></g><g class="cls-11"><path class="cls-8" d="M122.78,63.62l-.22-.72-16.05,7.71a2,2,0,0,0,1.17.39h4.25l11.41-5.48Z"/></g><path class="cls-3" d="M122.31,72H107.69a3,3,0,0,1-2.87-3.86l1.8-6A3,3,0,0,1,109.49,60h11a3,3,0,0,1,2.87,2.14l1.8,6A3,3,0,0,1,122.31,72ZM109.49,62a1,1,0,0,0-1,.71l-1.8,6h0a1,1,0,0,0,1,1.29h14.62a1,1,0,0,0,1-1.29l-1.8-6a1,1,0,0,0-1-.71Zm-3.72,6.43h0Z"/><path class="cls-10" d="M105.77,58.43l1.8-6A2,2,0,0,1,109.49,51h11a2,2,0,0,1,1.92,1.43l1.8,6A2,2,0,0,1,122.31,61H107.69A2,2,0,0,1,105.77,58.43Z"/><g class="cls-11"><path class="cls-8" d="M105.77,58.43s0,.06,0,.1l15.41-7.41a2,2,0,0,0-.66-.12h-11a2,2,0,0,0-1.92,1.43Z"/></g><g class="cls-11"><path class="cls-8" d="M122.78,53.62l-.22-.72-16.05,7.71a2,2,0,0,0,1.17.39h4.25l11.41-5.48Z"/></g><path class="cls-3" d="M122.31,62H107.69a3,3,0,0,1-2.87-3.86l1.8-6A3,3,0,0,1,109.49,50h11a3,3,0,0,1,2.87,2.14l1.8,6A3,3,0,0,1,122.31,62ZM109.49,52a1,1,0,0,0-1,.71l-1.8,6h0a1,1,0,0,0,1,1.29h14.62a1,1,0,0,0,1-1.29l-1.8-6a1,1,0,0,0-1-.71Zm-3.72,6.43h0Z"/><path class="cls-10" d="M85.77,58.43l1.8-6A2,2,0,0,1,89.49,51h11a2,2,0,0,1,1.92,1.43l1.8,6A2,2,0,0,1,102.31,61H87.69A2,2,0,0,1,85.77,58.43Z"/><g class="cls-11"><path class="cls-8" d="M85.77,58.43s0,.06,0,.1l15.41-7.41a2,2,0,0,0-.66-.12h-11a2,2,0,0,0-1.92,1.43Z"/></g><g class="cls-11"><path class="cls-8" d="M102.78,53.62l-.22-.72L86.52,60.61a2,2,0,0,0,1.17.39h4.25l11.41-5.48Z"/></g><path class="cls-3" d="M102.31,62H87.69a3,3,0,0,1-2.87-3.86l1.8-6A3,3,0,0,1,89.49,50h11a3,3,0,0,1,2.87,2.14l1.8,6A3,3,0,0,1,102.31,62ZM89.49,52a1,1,0,0,0-1,.71l-1.8,6h0a1,1,0,0,0,1,1.29h14.62a1,1,0,0,0,1-1.29l-1.8-6a1,1,0,0,0-1-.71Zm-3.72,6.43h0Z"/><path class="cls-10" d="M95.77,48.43l1.8-6A2,2,0,0,1,99.49,41h11a2,2,0,0,1,1.92,1.43l1.8,6A2,2,0,0,1,112.31,51H97.69A2,2,0,0,1,95.77,48.43Z"/><g class="cls-11"><path class="cls-8" d="M95.77,48.43s0,.06,0,.1l15.41-7.41a2,2,0,0,0-.66-.12h-11a2,2,0,0,0-1.92,1.43Z"/></g><g class="cls-11"><path class="cls-8" d="M112.78,43.62l-.22-.72L96.52,50.61a2,2,0,0,0,1.17.39h4.25l11.41-5.48Z"/></g><path class="cls-3" d="M112.31,52H97.69a3,3,0,0,1-2.87-3.86l1.8-6A3,3,0,0,1,99.49,40h11a3,3,0,0,1,2.87,2.14l1.8,6A3,3,0,0,1,112.31,52ZM99.49,42a1,1,0,0,0-1,.71l-1.8,6h0a1,1,0,0,0,1,1.29h14.62a1,1,0,0,0,1-1.29l-1.8-6a1,1,0,0,0-1-.71Zm-3.72,6.43h0Z"/><path class="cls-3" d="M104,126H22a1,1,0,0,1,0-2h82a1,1,0,0,1,0,2Z"/><path class="cls-3" d="M111,126h-4a1,1,0,0,1,0-2h4a1,1,0,0,1,0,2Z"/><path class="cls-3" d="M19,126H17a1,1,0,0,1,0-2h2a1,1,0,0,1,0,2Z"/><rect class="cls-10" height="3" width="7" x="36" y="119"/><path class="cls-3" d="M43,123H36a1,1,0,0,1-1-1v-3a1,1,0,0,1,1-1h7a1,1,0,0,1,1,1v3A1,1,0,0,1,43,123Zm-6-2h5v-1H37Z"/><rect class="cls-12" height="3" width="7" x="36" y="116"/><path class="cls-3" d="M43,120H36a1,1,0,0,1-1-1v-3a1,1,0,0,1,1-1h7a1,1,0,0,1,1,1v3A1,1,0,0,1,43,120Zm-6-2h5v-1H37Z"/><rect class="cls-10" height="3" width="7" x="36" y="113"/><path class="cls-3" d="M43,117H36a1,1,0,0,1-1-1v-3a1,1,0,0,1,1-1h7a1,1,0,0,1,1,1v3A1,1,0,0,1,43,117Zm-6-2h5v-1H37Z"/><rect class="cls-10" height="3" width="7" x="42" y="121"/><path class="cls-3" d="M49,125H42a1,1,0,0,1-1-1v-3a1,1,0,0,1,1-1h7a1,1,0,0,1,1,1v3A1,1,0,0,1,49,125Zm-6-2h5v-1H43Z"/><rect class="cls-12" height="3" width="7" x="42" y="118"/><path class="cls-3" d="M49,122H42a1,1,0,0,1-1-1v-3a1,1,0,0,1,1-1h7a1,1,0,0,1,1,1v3A1,1,0,0,1,49,122Zm-6-2h5v-1H43Z"/><rect class="cls-10" height="3" width="7" x="42" y="115"/><path class="cls-3" d="M49,119H42a1,1,0,0,1-1-1v-3a1,1,0,0,1,1-1h7a1,1,0,0,1,1,1v3A1,1,0,0,1,49,119Zm-6-2h5v-1H43Z"/><rect class="cls-12" height="3" width="7" x="42" y="112"/><path class="cls-3" d="M49,116H42a1,1,0,0,1-1-1v-3a1,1,0,0,1,1-1h7a1,1,0,0,1,1,1v3A1,1,0,0,1,49,116Zm-6-2h5v-1H43Z"/><rect class="cls-10" height="3" width="7" x="42" y="109"/><path class="cls-3" d="M49,113H42a1,1,0,0,1-1-1v-3a1,1,0,0,1,1-1h7a1,1,0,0,1,1,1v3A1,1,0,0,1,49,113Zm-6-2h5v-1H43Z"/><rect class="cls-10" height="3" width="7" x="31" y="122"/><path class="cls-3" d="M38,126H31a1,1,0,0,1-1-1v-3a1,1,0,0,1,1-1h7a1,1,0,0,1,1,1v3A1,1,0,0,1,38,126Zm-6-2h5v-1H32Z"/><rect class="cls-12" height="3" width="7" x="31" y="119"/><path class="cls-3" d="M38,123H31a1,1,0,0,1-1-1v-3a1,1,0,0,1,1-1h7a1,1,0,0,1,1,1v3A1,1,0,0,1,38,123Zm-6-2h5v-1H32Z"/><rect class="cls-10" height="3" width="7" x="31" y="116"/><path class="cls-3" d="M38,120H31a1,1,0,0,1-1-1v-3a1,1,0,0,1,1-1h7a1,1,0,0,1,1,1v3A1,1,0,0,1,38,120Zm-6-2h5v-1H32Z"/><rect class="cls-10" height="3" width="7" x="93" y="122"/><path class="cls-3" d="M100,126H93a1,1,0,0,1-1-1v-3a1,1,0,0,1,1-1h7a1,1,0,0,1,1,1v3A1,1,0,0,1,100,126Zm-6-2h5v-1H94Z"/><rect class="cls-12" height="3" transform="translate(-59.11 100.29) rotate(-45)" width="7" x="88" y="120"/><path class="cls-3" d="M90.09,126a1,1,0,0,1-.71-.29l-2.12-2.12a1,1,0,0,1,0-1.41l4.95-4.95a1,1,0,0,1,1.41,0l2.12,2.12a1,1,0,0,1,0,1.41l-4.95,4.95A1,1,0,0,1,90.09,126Zm-.71-3.12.71.71,3.54-3.54-.71-.71Z"/></g><path class="cls-3" d="M63,95.48a1,1,0,0,1-.94-.66c-1.25-3.5-.28-8.35.74-13.48C64,75,65.34,68.54,62.26,65.17a1,1,0,0,1,1.48-1.35c3.76,4.12,2.37,11.12,1,17.9-1,4.86-1.88,9.45-.82,12.42a1,1,0,0,1-.61,1.28A1,1,0,0,1,63,95.48Z"/><path class="cls-5" d="M55.33,84.17c-2.7-2.76-2.81-7.38-2.64-7.2,0,0,4.65,0,7.34,2.79S62.46,87,62.46,87,58,86.93,55.33,84.17Z"/><path class="cls-3" d="M62.46,88h0c-.2,0-4.88-.07-7.83-3.1a11.51,11.51,0,0,1-2.92-8.14,1.07,1.07,0,0,1,.74-.73,1,1,0,0,1,.35,0c.7,0,5.19.24,8,3.09,3,3,2.72,7.77,2.7,8A1,1,0,0,1,62.46,88ZM53.7,78a9.79,9.79,0,0,0,2.35,5.42h0a9.44,9.44,0,0,0,5.39,2.41,8.8,8.8,0,0,0-2.12-5.42A9.71,9.71,0,0,0,53.7,78Z"/><path class="cls-6" d="M72.79,83.47c4.55-3,6.95-9.71,6.65-9.51,0,0-6.44-1.33-11,1.69S63,84.91,63,84.91A12.68,12.68,0,0,0,72.79,83.47Z"/><path class="cls-3" d="M66.31,86.33a13.63,13.63,0,0,1-3.63-.46,1,1,0,0,1-.7-1.11C62,84.49,63,78,67.9,74.81c4.67-3.11,11-2,11.7-1.85a1,1,0,0,1,.7.44c.4.61-.13,2.21-1.6,4.78a18.33,18.33,0,0,1-5.36,6.12A12.6,12.6,0,0,1,66.31,86.33Zm-2.16-2.19a11.41,11.41,0,0,0,8.08-1.5h0c3-2,5.15-6,5.92-7.85-1.93-.21-6.07-.35-9.15,1.7S64.59,82.39,64.16,84.14Z"/><path class="cls-13" d="M75.71,125H50.29a2,2,0,0,1-2-1.78L46,102H80l-2.31,21.22A2,2,0,0,1,75.71,125Z"/><g class="cls-1"><polygon class="cls-14" points="79.56 106 80 102 46 102 46.43 106 79.56 106"/></g><g class="cls-1"><path class="cls-14" d="M77.5,121h-29l-2.17-19H46l2.31,21.22a2,2,0,0,0,2,1.78H75.71a2,2,0,0,0,2-1.78L80,102h-.33Z"/></g><rect class="cls-2" height="8" rx="2" ry="2" width="40" x="43" y="94"/><g class="cls-1"><polygon class="cls-15" points="56.5 125 52.5 125 50 102 54 102 56.5 125"/></g><path class="cls-3" d="M75.71,126H50.29a3,3,0,0,1-3-2.68L45,102.11A1,1,0,0,1,46,101H80a1,1,0,0,1,1,1.11l-2.31,21.22A3,3,0,0,1,75.71,126ZM47.11,103l2.19,20.11a1,1,0,0,0,1,.89H75.71a1,1,0,0,0,1-.89L78.89,103Z"/><g class="cls-1"><rect class="cls-8" height="8" width="4" x="49" y="94"/></g><g class="cls-1"><path class="cls-15" d="M43,96v1H83V96a2,2,0,0,0-2-2H45A2,2,0,0,0,43,96Z"/></g><g class="cls-1"><path class="cls-14" d="M43,99v1a2,2,0,0,0,2,2H81a2,2,0,0,0,2-2V99Z"/></g><path class="cls-3" d="M81,103H45a3,3,0,0,1-3-3V96a3,3,0,0,1,3-3H81a3,3,0,0,1,3,3v4A3,3,0,0,1,81,103ZM45,95a1,1,0,0,0-1,1v4a1,1,0,0,0,1,1H81a1,1,0,0,0,1-1V96a1,1,0,0,0-1-1Z"/><rect class="cls-5" height="36" width="69" x="29" y="29"/><g class="cls-1"><rect class="cls-16" height="18" width="69" x="29" y="47"/></g><path class="cls-6" d="M93,55.58A4.42,4.42,0,0,0,88.57,60H38.42A4.42,4.42,0,0,0,34,55.58V38.42A4.42,4.42,0,0,0,38.42,34H88.57A4.42,4.42,0,0,0,93,38.42Z"/><path class="cls-3" d="M98,66H29a1,1,0,0,1-1-1V29a1,1,0,0,1,1-1H98a1,1,0,0,1,1,1V65A1,1,0,0,1,98,66ZM30,64H97V30H30Z"/><g class="cls-1"><path class="cls-16" d="M33.5,47v9A4.5,4.5,0,0,1,38,60.5H89A4.5,4.5,0,0,1,93.5,56V47Z"/></g><path class="cls-3" d="M88.57,61H38.42a1,1,0,0,1-1-1A3.42,3.42,0,0,0,34,56.58a1,1,0,0,1-1-1V38.42a1,1,0,0,1,1-1A3.42,3.42,0,0,0,37.42,34a1,1,0,0,1,1-1H88.57a1,1,0,0,1,1,1A3.42,3.42,0,0,0,93,37.42a1,1,0,0,1,1,1V55.58a1,1,0,0,1-1,1A3.42,3.42,0,0,0,89.57,60,1,1,0,0,1,88.57,61ZM39.33,59H87.67A5.44,5.44,0,0,1,92,54.68V39.33A5.44,5.44,0,0,1,87.67,35H39.33A5.44,5.44,0,0,1,35,39.33V54.68A5.44,5.44,0,0,1,39.33,59Z"/><ellipse class="cls-5" cx="63.5" cy="48.5" rx="9.6" ry="12"/><path class="cls-3" d="M63.5,61.5c-5.84,0-10.6-5.83-10.6-13s4.76-13,10.6-13,10.6,5.83,10.6,13S69.34,61.5,63.5,61.5Zm0-24c-4.74,0-8.6,4.93-8.6,11s3.86,11,8.6,11,8.6-4.93,8.6-11S68.24,37.5,63.5,37.5Z"/><circle class="cls-5" cx="44" cy="47" r="2.25"/><path class="cls-3" d="M44,50.25A3.25,3.25,0,1,1,47.25,47,3.25,3.25,0,0,1,44,50.25Zm0-4.5A1.25,1.25,0,1,0,45.25,47,1.25,1.25,0,0,0,44,45.75Z"/><circle class="cls-3" cx="33.5" cy="33.5" r="0.75"/><path class="cls-3" d="M33.5,35.25a1.75,1.75,0,1,1,1.75-1.75A1.75,1.75,0,0,1,33.5,35.25Zm0-2a.25.25,0,0,0-.25.25c0,.28.5.28.5,0A.25.25,0,0,0,33.5,33.25Z"/><circle class="cls-3" cx="33.5" cy="60.5" r="0.75"/><path class="cls-3" d="M33.5,62.25a1.75,1.75,0,1,1,1.75-1.75A1.75,1.75,0,0,1,33.5,62.25Zm0-2a.25.25,0,0,0-.25.25c0,.28.5.28.5,0A.25.25,0,0,0,33.5,60.25Z"/><circle class="cls-3" cx="93.5" cy="33.5" r="0.75"/><path class="cls-3" d="M93.5,35.25a1.75,1.75,0,1,1,1.75-1.75A1.75,1.75,0,0,1,93.5,35.25Zm0-2a.25.25,0,0,0-.25.25c0,.28.5.28.5,0A.25.25,0,0,0,93.5,33.25Z"/><circle class="cls-3" cx="93.5" cy="60.5" r="0.75"/><path class="cls-3" d="M93.5,62.25a1.75,1.75,0,1,1,1.75-1.75A1.75,1.75,0,0,1,93.5,62.25Zm0-2a.25.25,0,0,0-.25.25c0,.28.5.28.5,0A.25.25,0,0,0,93.5,60.25Z"/><path class="cls-6" d="M67.45,55.11,66.91,55a.65.65,0,0,1-.55-.67c0-.36,0-.74,0-1.14,0-.91,1.1-2,1.16-3.29a5.16,5.16,0,0,0,.57-2.09,1.08,1.08,0,0,0-.26-.8c.09-.48.17-1,.26-1.5.38-2.09-.35-3.59-2.19-4.24-.66-.23-3.41-.71-4.43-1.7-.37-.36-.12,1.66-.45,1.81a3.35,3.35,0,0,0-2.14,4.13c.09.52.17,1,.26,1.5a1.08,1.08,0,0,0-.26.8,5.16,5.16,0,0,0,.57,2.09c.06,1.28,1.16,2.32,1.16,3.29,0,.4,0,.78,0,1.14a.65.65,0,0,1-.55.67l-.61.12a11,11,0,0,0-3.27,1.2,9.17,9.17,0,0,0,6.29,4.13,8.47,8.47,0,0,0,1,.06h.09a8.47,8.47,0,0,0,.93-.06,9.18,9.18,0,0,0,6.3-4.15A10.41,10.41,0,0,0,67.45,55.11Z"/><path class="cls-3" d="M63.45,61.5h0a9.18,9.18,0,0,1-1.06-.07,10.13,10.13,0,0,1-7-4.56,1,1,0,0,1,.33-1.44,12.08,12.08,0,0,1,3.56-1.31l.35-.07c0-.28,0-.58,0-.89a3.08,3.08,0,0,0-.41-1,5.77,5.77,0,0,1-.73-2,5.94,5.94,0,0,1-.59-2.36,2.35,2.35,0,0,1,.21-1L58,46.35l-.12-.68a4.26,4.26,0,0,1,2.31-5c0-.12,0-.27,0-.37,0-.7.07-1.42.78-1.7a1.09,1.09,0,0,1,1.16.25,9.4,9.4,0,0,0,3.23,1.24c.37.09.67.17.84.23,2.27.81,3.3,2.76,2.84,5.36l-.12.68-.07.43a2.35,2.35,0,0,1,.21,1,6,6,0,0,1-.59,2.35,6,6,0,0,1-.75,2.08,3.36,3.36,0,0,0-.39.95c0,.3,0,.6,0,.89l.28.06a11.47,11.47,0,0,1,3.65,1.29,1,1,0,0,1,.33,1.43,10.13,10.13,0,0,1-7,4.58,9.45,9.45,0,0,1-1,.07Zm-5.7-4.83a7.81,7.81,0,0,0,4.87,2.78,7.54,7.54,0,0,0,.86.06,8.39,8.39,0,0,0,.89-.06,7.81,7.81,0,0,0,4.88-2.79,10.19,10.19,0,0,0-2-.56h0L66.69,56a1.65,1.65,0,0,1-1.33-1.69c0-.35,0-.71,0-1.09A4.16,4.16,0,0,1,66,51.31a4,4,0,0,0,.54-1.47,1,1,0,0,1,.1-.39,4.28,4.28,0,0,0,.47-1.66.58.58,0,0,0,0-.16.85.85,0,0,1-.23-.82c0-.26.09-.52.14-.79l.12-.7c.29-1.63-.21-2.65-1.54-3.12-.13,0-.37-.1-.66-.18a17.78,17.78,0,0,1-2.74-.87,1.34,1.34,0,0,1-.73,1.13,2.37,2.37,0,0,0-1.56,3L60,46c0,.27.09.53.14.79a1,1,0,0,1-.24.86s0,0,0,.13a4.27,4.27,0,0,0,.48,1.66,1,1,0,0,1,.1.39A3.7,3.7,0,0,0,61,51.25a4.18,4.18,0,0,1,.63,1.92c0,.39,0,.75,0,1.1A1.66,1.66,0,0,1,60.27,56l-.59.12A10.78,10.78,0,0,0,57.75,56.67ZM59.9,54h0Zm7.18,0h0Z"/><path class="cls-5" d="M75.5,60h-6a11.2,11.2,0,0,0-6-1.5,11.2,11.2,0,0,0-6,1.5h-6v5h24Z"/><path class="cls-3" d="M75.5,66h-24a1,1,0,0,1-1-1V60a1,1,0,0,1,1-1h5.71a12.5,12.5,0,0,1,6.28-1.5A12.5,12.5,0,0,1,69.78,59H75.5a1,1,0,0,1,1,1v5A1,1,0,0,1,75.5,66Zm-23-2h22V61h-5a1,1,0,0,1-.55-.17A10.31,10.31,0,0,0,63.5,59.5a10.31,10.31,0,0,0-5.44,1.33,1,1,0,0,1-.55.17h-5Z"/><path class="cls-3" d="M48.49,53h-9a1,1,0,0,1,0-2h9a1,1,0,0,1,0,2Z"/><circle class="cls-5" cx="83" cy="47" r="2.25"/><path class="cls-3" d="M83,50.25A3.25,3.25,0,1,1,86.25,47,3.25,3.25,0,0,1,83,50.25Zm0-4.5A1.25,1.25,0,1,0,84.25,47,1.25,1.25,0,0,0,83,45.75Z"/><path class="cls-3" d="M87.5,53h-9a1,1,0,0,1,0-2h9a1,1,0,0,1,0,2Z"/></svg>